<?xml version="1.0" encoding="utf-8"?>
<!-- Generator: Adobe Illustrator 24.0.2, SVG Export Plug-In . SVG Version: 6.00 Build 0)  -->
<svg version="1.1" id="Calque_1" xmlns="http://www.w3.org/2000/svg" xmlns:xlink="http://www.w3.org/1999/xlink" x="0px" y="0px"
	 viewBox="0 0 168 180" style="enable-background:new 0 0 168 180;" xml:space="preserve">
<style type="text/css">
	.st0{fill:#2D2D2B;}
	.st1{fill:#FFFFFF;}
	.st2{clip-path:url(#SVGID_2_);fill:url(#SVGID_3_);}
	.st3{clip-path:url(#SVGID_5_);fill:url(#SVGID_6_);}
	.st4{clip-path:url(#SVGID_8_);fill:url(#SVGID_9_);}
	.st5{fill:#1D1D1B;}
</style>
<g>
	<path class="st0" d="M24,78.8c0-34.6,28.1-62.7,62.7-62.7c34.6,0,62.7,28.1,62.7,62.7c0,34.6-28.1,62.7-62.7,62.7
		C52.1,141.5,24,113.4,24,78.8"/>
	<path class="st1" d="M95.3,72.4c-0.3-3-0.5-3.6-2.5-3.6h-1l0.4-1.2H103l-0.4,1.2h-1.2c-1.6,0-1.8,0.9-1.8,1.5
		c0,0.5,0.1,1.8,0.2,3.3l1.6,18h0.1l12-18.9c1.1-1.7,1.2-2.4,1.2-2.7c0-1.2-1.3-1.2-2.4-1.2h-0.9l0.4-1.2h8.2l-0.4,1.2h-0.6
		c-1.1,0-1.6,0.6-3.4,3.5l-16,25.3h-1.9L95.3,72.4z"/>
	<path class="st1" d="M92.5,104.6c1-0.2,1.8-0.1,2.4,0.2c0.6,0.4,1,0.9,1.1,1.6c0.1,0.6,0,1.2-0.2,1.8c-0.3,0.5-0.8,0.9-1.4,1
		c-0.2,0-0.5,0-0.8,0c-0.3-0.1-0.5-0.2-0.7-0.4c-0.4,0.6-0.6,1.3-0.6,2.1c0,0.8,0.1,1.6,0.2,2.4c0.2,1.1,0.7,2.1,1.5,3.1
		c0.7,0.9,1.7,1.7,2.9,2.2c1.2,0.6,2.5,1,4,1.1c1.5,0.2,3.1,0.1,4.9-0.2c2.9-0.6,5.3-1.8,7-3.5c1.8-1.7,3-3.8,3.9-6.1
		c0.8-2.3,1.3-4.8,1.3-7.5c0-2.7-0.1-5.2-0.6-7.6c-0.7-3.8-1-7.4-1-10.6c0.1-3.2,0.6-6,1.5-8.4c0.9-2.4,2.2-4.4,3.9-5.9
		c1.7-1.6,3.9-2.6,6.4-3.1c2.3-0.5,4.2-0.3,5.9,0.5c1.6,0.8,2.6,2.1,3,3.9c0.3,1.4,0,2.5-0.8,3.4c-0.8,0.9-1.9,1.5-3.2,1.7
		c0.3-0.8,0.5-1.6,0.6-2.4c0.1-0.7,0-1.6-0.2-2.7c-0.3-1.6-1-2.6-2.1-3.2c-1.1-0.6-2.2-0.7-3.5-0.5c-1.7,0.3-3,1-4.1,1.9
		c-1,0.9-1.9,2-2.4,3.4c-0.6,1.3-1,2.8-1.1,4.5c-0.2,1.7-0.2,3.4-0.2,5.2c0.1,1.8,0.2,3.7,0.4,5.5c0.2,1.9,0.5,3.7,0.7,5.6
		c0.6,4.5,0.5,8.3-0.1,11.5c-0.7,3.2-1.8,5.8-3.3,7.9c-1.5,2.1-3.3,3.7-5.5,4.9c-2.1,1.2-4.4,2-6.8,2.5c-1.9,0.4-3.8,0.4-5.5,0.1
		c-1.7-0.3-3.3-0.9-4.7-1.7c-1.4-0.9-2.5-2-3.5-3.4c-0.9-1.4-1.6-3-1.9-4.8c-0.3-1.5-0.2-2.8,0.3-4
		C90.6,105.5,91.4,104.8,92.5,104.6"/>
	<path class="st1" d="M64.7,61.6c0.1,1,0.2,1.8,0.3,2.5c0,0.7,0.1,1.4,0.1,2.1c0,2.1-0.3,4.1-0.9,5.9c-0.6,1.9-1.4,3.5-2.5,4.9
		c-1.1,1.4-2.4,2.6-3.9,3.4c-1.6,0.8-3.3,1.3-5.3,1.3c-1.7,0-3.2-0.3-4.6-0.9c-1.3-0.6-2.4-1.5-3.3-2.5c-0.9-1-1.6-2.2-2.1-3.6
		c-0.5-1.4-0.7-2.8-0.7-4.3c0-2,0.4-4.1,1.2-6.3c0.8-2.1,1.9-4.2,3.3-6.2c1.4-2,3.2-3.9,5.3-5.6c2.1-1.8,4.4-3.3,7-4.6
		c2.6-1.3,5.4-2.4,8.4-3.1c3-0.8,6.2-1.1,9.5-1.1c2.7,0,5.2,0.3,7.4,0.8c2.3,0.5,4.2,1.2,5.9,2.2c1.9-1,3.6-1.8,5.1-2.3
		c1.6-0.5,3.1-0.8,4.6-1.1v0.8c-1.5,0.2-2.9,0.6-4.3,1c-1.4,0.4-2.8,1.1-4.3,2.1c1.5,1.2,2.6,2.5,3.4,3.8c0.8,1.3,1.2,3,1.2,4.9
		c0,1.8-0.4,3.4-1.2,4.8c-0.8,1.4-1.8,2.7-3.1,3.7c-1.3,1-2.7,1.9-4.3,2.6c-1.6,0.7-3.2,1.2-4.7,1.5v0.1c1.3,0,2.6,0.3,3.7,0.7
		c1.2,0.4,2.2,1,3,1.7c0.9,0.7,1.5,1.6,2,2.7c0.5,1.1,0.7,2.4,0.7,3.9c0,2.3-0.5,4.4-1.6,6.4c-1.1,2-2.4,3.7-4,5.2
		c-1.6,1.5-3.4,2.6-5.4,3.4c-2,0.8-3.9,1.3-5.8,1.3c-2.6,0-4.8-0.6-6.4-1.7c-1.6-1.1-2.4-2.6-2.4-4.3c0-1.2,0.4-2.2,1.1-3
		c0.7-0.8,1.7-1.3,2.9-1.3c0.7,0,1.4,0.3,2,0.8c-0.8,0.1-1.4,0.6-1.7,1.4C70,86,69.8,87,69.8,88.2c0,1.3,0.5,2.3,1.4,3.1
		c0.9,0.8,2.1,1.3,3.6,1.3c2.1,0,4-0.5,5.6-1.4c1.6-0.9,2.9-2.1,4-3.6c1.1-1.5,1.9-3.2,2.4-5.1c0.5-1.9,0.8-3.9,0.8-5.8
		c0-1.5-0.3-2.7-0.8-3.7c-0.5-1-1.2-1.8-2.1-2.4c-0.9-0.6-1.9-1-3.1-1.3c-1.2-0.2-2.4-0.3-3.8-0.3v-0.8c2.1,0,4-0.3,5.7-1
		c1.7-0.7,3.1-1.7,4.3-2.9c1.2-1.3,2.1-2.7,2.8-4.5c0.7-1.7,1-3.6,1-5.6c0-1.1-0.2-2.1-0.6-3.1c-0.4-1-1-1.9-1.7-2.7
		c-2.2,1.9-4.3,4.4-6.3,7.4c-2,3-3.9,6.2-5.9,9.6c-2,3.4-4,6.8-6.1,10.2c-2.1,3.4-4.3,6.4-6.7,9.2c-2.4,2.7-5,5-7.8,6.7
		c-2.8,1.7-6,2.6-9.5,2.6c-2.4,0-4.3-0.5-5.7-1.5c-1.4-1-2.1-2.2-2.1-3.7c0-0.9,0.3-1.7,0.8-2.2c0.5-0.5,1.2-0.8,2-0.8
		c0.8,0,1.4,0.2,1.8,0.7c0.4,0.5,0.6,1.1,0.6,1.8c0,0.7-0.2,1.2-0.7,1.6c-0.4,0.4-1,0.7-1.6,0.7c0.1,0.5,0.3,0.9,0.7,1.2
		c0.4,0.3,0.8,0.6,1.3,0.8c0.5,0.2,1,0.3,1.5,0.4c0.5,0.1,1,0.1,1.3,0.1c2.3,0,4.4-0.4,6.1-1.3c1.8-0.9,3.4-2.1,5-3.8
		c1.6-1.6,3.1-3.6,4.6-6c1.5-2.3,3.1-5,4.9-7.9c1.9-3,3.6-5.9,5.2-8.5c1.6-2.7,3.2-5.1,4.8-7.4c1.6-2.3,3.3-4.3,5-6.2
		c1.7-1.9,3.7-3.4,5.7-4.7c-1.5-1.2-3.3-2-5.4-2.5c-2.1-0.4-4.4-0.7-6.8-0.7c-4.3,0-8.4,0.7-12.2,2.2c-3.9,1.5-7.2,3.4-10.1,5.8
		c-2.9,2.4-5.2,5.1-6.9,8.2c-1.7,3.1-2.5,6.3-2.5,9.6c0,1.3,0.2,2.5,0.5,3.9c0.3,1.3,0.8,2.5,1.5,3.6c0.7,1,1.5,1.9,2.5,2.6
		c1,0.7,2.2,1,3.6,1c1.7,0,3.3-0.4,4.7-1.1C58.7,79,60,78,61,76.7c1-1.3,1.8-2.9,2.4-4.7c0.6-1.8,0.9-3.8,0.9-5.9
		c0-0.7,0-1.5-0.1-2.2c0-0.7-0.1-1.5-0.2-2.2L64.7,61.6z"/>
</g>
<g>
	<defs>
		<path id="SVGID_1_" d="M67.5,10c-2.6,1.3-5.3,2.8-7.9,4.5c15.4-7,40.5-7.6,59.1-1.7c28.4,9,37.8,35,37.7,63.2c0,1-0.1,2.5,0,2.9
			c3.4-16.6,7.7-46.8-15.6-62.7c-16-10.8-28.9-14.5-40.3-14.5C88.3,1.8,77.9,6,67.5,10"/>
	</defs>
	<clipPath id="SVGID_2_">
		<use xlink:href="#SVGID_1_"  style="overflow:visible;"/>
	</clipPath>
	
		<linearGradient id="SVGID_3_" gradientUnits="userSpaceOnUse" x1="-336.031" y1="386.7659" x2="-335.1634" y2="386.7659" gradientTransform="matrix(127.2523 124.6146 124.6146 -127.2523 -5370.7158 91085.9063)">
		<stop  offset="0" style="stop-color:#DFBE6C"/>
		<stop  offset="8.719000e-05" style="stop-color:#DFBE6C"/>
		<stop  offset="0.4735" style="stop-color:#93784E"/>
		<stop  offset="0.5207" style="stop-color:#9A7E51"/>
		<stop  offset="0.5881" style="stop-color:#AD9058"/>
		<stop  offset="0.6673" style="stop-color:#CBAC64"/>
		<stop  offset="0.7104" style="stop-color:#DFBE6C"/>
		<stop  offset="1" style="stop-color:#93784E"/>
	</linearGradient>
	<polygon class="st2" points="110.8,-50.5 202.8,39.6 113,131.3 21.1,41.2 	"/>
</g>
<g>
	<defs>
		<path id="SVGID_4_" d="M142.1,117.8c-10.9,19.3-26.1,24.4-45.7,27.8c-14.7,2.6-31.9-0.8-47.4-6.3c21.2,14.3,36.4,14.5,53.3,12.8
			c7.7-1.2,27.5-8.7,34.3-13.2c18.7-12,19.1-36.4,19.9-61.5C154.8,88.9,146.4,109.8,142.1,117.8"/>
	</defs>
	<clipPath id="SVGID_5_">
		<use xlink:href="#SVGID_4_"  style="overflow:visible;"/>
	</clipPath>
	
		<linearGradient id="SVGID_6_" gradientUnits="userSpaceOnUse" x1="-336.0344" y1="386.6894" x2="-335.1667" y2="386.6894" gradientTransform="matrix(133.1552 135.0275 135.0275 -133.1552 -7443.6309 96900.6328)">
		<stop  offset="0" style="stop-color:#DFBE6C"/>
		<stop  offset="8.719000e-05" style="stop-color:#DFBE6C"/>
		<stop  offset="0.4735" style="stop-color:#93784E"/>
		<stop  offset="0.5207" style="stop-color:#9A7E51"/>
		<stop  offset="0.5881" style="stop-color:#AD9058"/>
		<stop  offset="0.6673" style="stop-color:#CBAC64"/>
		<stop  offset="0.7104" style="stop-color:#DFBE6C"/>
		<stop  offset="1" style="stop-color:#93784E"/>
	</linearGradient>
	<polygon class="st3" points="103.5,23.6 194.7,116.1 102,207.5 10.8,115 	"/>
</g>
<g>
	<defs>
		<path id="SVGID_7_" d="M13.2,49.4c-3.6,6.7-7.8,14.5-8.2,22.9v3.8c1.1,22.4,20.8,50.7,44.7,63.8c-8.1-7-23-21.6-27.3-30.4
			c-10.1-21.7-9.1-40.2,0-58c6.8-13.4,24-29.2,38.4-37.7C35.2,20.7,22.2,34.9,13.2,49.4"/>
	</defs>
	<clipPath id="SVGID_8_">
		<use xlink:href="#SVGID_7_"  style="overflow:visible;"/>
	</clipPath>
	
		<linearGradient id="SVGID_9_" gradientUnits="userSpaceOnUse" x1="-335.9947" y1="386.5412" x2="-335.1271" y2="386.5412" gradientTransform="matrix(102.0083 68.2886 68.2886 -102.0083 7872.3008 62426.0508)">
		<stop  offset="0" style="stop-color:#DFBE6C"/>
		<stop  offset="8.719000e-05" style="stop-color:#DFBE6C"/>
		<stop  offset="0.4735" style="stop-color:#93784E"/>
		<stop  offset="0.5207" style="stop-color:#9A7E51"/>
		<stop  offset="0.5881" style="stop-color:#AD9058"/>
		<stop  offset="0.6673" style="stop-color:#CBAC64"/>
		<stop  offset="0.7104" style="stop-color:#DFBE6C"/>
		<stop  offset="1" style="stop-color:#93784E"/>
	</linearGradient>
	<polygon class="st4" points="22.3,-12 119.1,52.8 43.6,165.6 -53.2,100.8 	"/>
</g>
<g>
	<path class="st5" d="M6.5,168.5L6.5,168.5c0.2,0,0.3,0,0.4,0c0.5,0,0.9-0.1,1.1-0.3c0.2-0.2,0.3-0.5,0.3-0.9c0-0.4-0.1-0.7-0.3-0.8
		c-0.2-0.2-0.5-0.3-1-0.3c-0.1,0-0.2,0-0.3,0c-0.1,0-0.2,0-0.3,0V168.5z M6.5,165.7C6.5,165.7,6.6,165.7,6.5,165.7
		c0.1,0,0.2,0,0.2,0c0.4,0,0.8-0.1,1-0.3c0.2-0.2,0.3-0.5,0.3-0.9c0-0.3-0.1-0.6-0.3-0.8c-0.2-0.2-0.5-0.2-0.9-0.2
		c-0.1,0-0.2,0-0.3,0h0L6.5,165.7z M4.7,163h2.6c0.6,0,1.1,0.1,1.4,0.3c0.3,0.2,0.5,0.6,0.5,1c0,0.3-0.1,0.6-0.3,0.9
		c-0.2,0.2-0.5,0.4-0.9,0.5c0.5,0,0.9,0.1,1.2,0.4c0.3,0.3,0.4,0.6,0.4,1c0,0.6-0.2,1-0.6,1.3c-0.4,0.3-0.9,0.4-1.6,0.4H4.7v-0.4
		l0.5,0l0.1-0.1v-4.7l-0.1-0.1l-0.5,0V163z"/>
	<path class="st5" d="M14.2,163.5c-0.5,0-0.9,0.2-1.2,0.7c-0.3,0.5-0.4,1.1-0.4,1.8c0,0.8,0.1,1.4,0.4,1.9c0.3,0.5,0.7,0.7,1.2,0.7
		c0.5,0,0.9-0.2,1.2-0.7c0.3-0.5,0.4-1.1,0.4-1.8c0-0.8-0.1-1.4-0.4-1.9C15.1,163.7,14.7,163.5,14.2,163.5 M11.3,166
		c0-0.5,0.1-0.9,0.2-1.3c0.1-0.4,0.4-0.7,0.7-1c0.3-0.3,0.6-0.4,0.9-0.6c0.3-0.1,0.7-0.2,1.1-0.2c0.4,0,0.7,0.1,1,0.2
		c0.3,0.1,0.6,0.3,0.9,0.5c0.3,0.3,0.6,0.6,0.8,1.1c0.2,0.4,0.3,0.9,0.3,1.4c0,0.5-0.1,0.9-0.2,1.3c-0.2,0.4-0.4,0.7-0.7,1
		c-0.3,0.2-0.6,0.4-0.9,0.6c-0.3,0.1-0.7,0.2-1,0.2c-0.9,0-1.6-0.3-2.1-0.9C11.5,167.7,11.3,166.9,11.3,166"/>
</g>
<polygon class="st5" points="18.5,168.9 18.5,168.5 19.1,168.5 19.2,168.3 19.2,163.6 19.1,163.5 18.5,163.5 18.5,163 21.1,163 
	21.1,163.5 20.5,163.5 20.4,163.6 20.4,168.3 20.5,168.5 21.1,168.5 21.1,168.9 "/>
<g>
	<path class="st5" d="M22.6,168.8v-1.6h0.7l0.1,1.1l0.1,0.1c0.1,0,0.3,0.1,0.4,0.1c0.1,0,0.3,0,0.4,0c0.3,0,0.6-0.1,0.8-0.2
		c0.2-0.2,0.3-0.4,0.3-0.6c0-0.2-0.1-0.4-0.2-0.6c-0.1-0.2-0.4-0.3-0.7-0.5c-0.1,0-0.1-0.1-0.2-0.1c-0.4-0.2-0.7-0.4-0.9-0.5
		c-0.2-0.2-0.3-0.4-0.4-0.6c-0.1-0.2-0.2-0.4-0.2-0.6c0-0.5,0.2-0.9,0.6-1.2c0.4-0.3,0.9-0.5,1.5-0.5c0.3,0,0.5,0,0.8,0.1
		c0.3,0,0.5,0.1,0.8,0.2v1.4h-0.6l-0.1-0.9l-0.1-0.1c-0.1,0-0.2-0.1-0.3-0.1c-0.1,0-0.2,0-0.4,0c-0.3,0-0.5,0.1-0.7,0.2
		c-0.2,0.2-0.3,0.4-0.3,0.6c0,0.2,0.1,0.3,0.2,0.5c0.1,0.1,0.3,0.3,0.5,0.5c0.1,0,0.2,0.1,0.5,0.3c0.3,0.1,0.5,0.3,0.7,0.4
		c0.2,0.2,0.4,0.4,0.6,0.6c0.1,0.2,0.2,0.5,0.2,0.7c0,0.5-0.2,1-0.6,1.3c-0.4,0.3-1,0.5-1.7,0.5c-0.3,0-0.6,0-0.8-0.1
		C23.2,168.9,22.9,168.9,22.6,168.8"/>
	<path class="st5" d="M28.4,168.8v-1.6H29l0.1,1.1l0.1,0.1c0.1,0,0.3,0.1,0.4,0.1c0.1,0,0.3,0,0.4,0c0.3,0,0.6-0.1,0.8-0.2
		c0.2-0.2,0.3-0.4,0.3-0.6c0-0.2-0.1-0.4-0.2-0.6c-0.1-0.2-0.4-0.3-0.7-0.5c-0.1,0-0.1-0.1-0.2-0.1c-0.4-0.2-0.7-0.4-0.9-0.5
		c-0.2-0.2-0.3-0.4-0.4-0.6c-0.1-0.2-0.2-0.4-0.2-0.6c0-0.5,0.2-0.9,0.6-1.2c0.4-0.3,0.9-0.5,1.5-0.5c0.3,0,0.5,0,0.8,0.1
		c0.3,0,0.5,0.1,0.8,0.2v1.4h-0.6l-0.1-0.9l-0.1-0.1c-0.1,0-0.2-0.1-0.3-0.1c-0.1,0-0.2,0-0.4,0c-0.3,0-0.5,0.1-0.7,0.2
		c-0.2,0.2-0.3,0.4-0.3,0.6c0,0.2,0.1,0.3,0.2,0.5c0.1,0.1,0.3,0.3,0.5,0.5c0.1,0,0.2,0.1,0.5,0.3c0.3,0.1,0.5,0.3,0.7,0.4
		c0.2,0.2,0.4,0.4,0.6,0.6c0.1,0.2,0.2,0.5,0.2,0.7c0,0.5-0.2,1-0.6,1.3c-0.4,0.3-1,0.5-1.7,0.5c-0.3,0-0.6,0-0.8-0.1
		C28.9,168.9,28.6,168.9,28.4,168.8"/>
	<path class="st5" d="M36.9,163.5c-0.5,0-0.9,0.2-1.2,0.7c-0.3,0.5-0.4,1.1-0.4,1.8c0,0.8,0.1,1.4,0.4,1.9c0.3,0.5,0.7,0.7,1.2,0.7
		c0.5,0,0.9-0.2,1.2-0.7c0.3-0.5,0.4-1.1,0.4-1.8c0-0.8-0.1-1.4-0.4-1.9C37.8,163.7,37.4,163.5,36.9,163.5 M34,166
		c0-0.5,0.1-0.9,0.2-1.3c0.1-0.4,0.4-0.7,0.7-1c0.3-0.3,0.6-0.4,0.9-0.6c0.3-0.1,0.7-0.2,1.1-0.2c0.4,0,0.7,0.1,1,0.2
		c0.3,0.1,0.6,0.3,0.9,0.5c0.3,0.3,0.6,0.6,0.8,1.1c0.2,0.4,0.3,0.9,0.3,1.4c0,0.5-0.1,0.9-0.2,1.3c-0.2,0.4-0.4,0.7-0.7,1
		c-0.3,0.2-0.6,0.4-0.9,0.6c-0.3,0.1-0.7,0.2-1,0.2c-0.9,0-1.6-0.3-2.1-0.9C34.2,167.7,34,166.9,34,166"/>
</g>
<polygon class="st5" points="41.2,168.9 41.2,168.5 41.7,168.5 41.8,168.3 41.8,163.6 41.7,163.5 41.2,163.5 41.2,163 43.1,163 
	43.1,163.3 45.8,167.5 45.8,163.7 45.6,163.5 45.1,163.5 45.1,163 47,163 47,163.5 46.5,163.5 46.4,163.7 46.4,168.9 45.4,168.9 
	42.4,164.2 42.4,168.3 42.6,168.5 43.1,168.5 43.1,168.9 "/>
<g>
	<path class="st5" d="M48.6,168.8v-1.6h0.7l0.1,1.1l0.1,0.1c0.1,0,0.3,0.1,0.4,0.1c0.1,0,0.3,0,0.4,0c0.3,0,0.6-0.1,0.8-0.2
		c0.2-0.2,0.3-0.4,0.3-0.6c0-0.2-0.1-0.4-0.2-0.6c-0.1-0.2-0.4-0.3-0.7-0.5c-0.1,0-0.1-0.1-0.2-0.1c-0.4-0.2-0.7-0.4-0.9-0.5
		c-0.2-0.2-0.3-0.4-0.4-0.6c-0.1-0.2-0.2-0.4-0.2-0.6c0-0.5,0.2-0.9,0.6-1.2c0.4-0.3,0.9-0.5,1.5-0.5c0.3,0,0.5,0,0.8,0.1
		c0.3,0,0.5,0.1,0.8,0.2v1.4h-0.6l-0.1-0.9l-0.1-0.1c-0.1,0-0.2-0.1-0.3-0.1c-0.1,0-0.2,0-0.4,0c-0.3,0-0.5,0.1-0.7,0.2
		c-0.2,0.2-0.3,0.4-0.3,0.6c0,0.2,0.1,0.3,0.2,0.5c0.1,0.1,0.3,0.3,0.5,0.5c0.1,0,0.2,0.1,0.5,0.3c0.3,0.1,0.5,0.3,0.7,0.4
		c0.2,0.2,0.4,0.4,0.6,0.6c0.1,0.2,0.2,0.5,0.2,0.7c0,0.5-0.2,1-0.6,1.3c-0.4,0.3-1,0.5-1.7,0.5c-0.3,0-0.6,0-0.8-0.1
		C49.1,168.9,48.8,168.9,48.6,168.8"/>
	<path class="st5" d="M54,170.5v-0.4c0.3-0.1,0.5-0.2,0.7-0.4c0.2-0.2,0.2-0.4,0.2-0.7v-0.1h-0.5c-0.1-0.1-0.1-0.1-0.1-0.2
		c0-0.1,0-0.2,0-0.3c0-0.2,0.1-0.3,0.2-0.4c0.1-0.1,0.3-0.2,0.4-0.2c0.2,0,0.4,0.1,0.6,0.2c0.1,0.2,0.2,0.4,0.2,0.7
		c0,0.5-0.1,0.8-0.4,1.2C54.9,170.2,54.5,170.4,54,170.5"/>
</g>
<polygon class="st5" points="60.3,163 62.7,163 62.7,163.5 62.2,163.5 62.1,163.7 63.5,167.7 64.9,163.7 64.8,163.5 64.3,163.5 
	64.3,163 66.2,163 66.2,163.5 65.6,163.6 63.7,168.9 62.8,168.9 60.9,163.6 60.3,163.5 "/>
<polygon class="st5" points="67.1,168.9 67.1,168.5 67.6,168.5 67.8,168.3 67.8,163.6 67.6,163.5 67.1,163.5 67.1,163 69.6,163 
	69.6,163.5 69.1,163.5 68.9,163.6 68.9,168.3 69.1,168.5 69.6,168.5 69.6,168.9 "/>
<polygon class="st5" points="70.9,168.9 70.9,168.5 71.4,168.5 71.6,168.3 71.6,163.6 71.5,163.5 70.9,163.5 70.9,163 72.9,163 
	72.9,163.3 75.5,167.5 75.5,163.7 75.4,163.5 74.8,163.5 74.8,163 76.8,163 76.8,163.5 76.3,163.5 76.2,163.7 76.2,168.9 
	75.2,168.9 72.2,164.2 72.2,168.3 72.4,168.5 72.9,168.5 72.9,168.9 "/>
<g>
	<path class="st5" d="M78.3,168.8v-1.6H79l0.1,1.1l0.1,0.1c0.1,0,0.3,0.1,0.4,0.1c0.1,0,0.3,0,0.4,0c0.3,0,0.6-0.1,0.8-0.2
		c0.2-0.2,0.3-0.4,0.3-0.6c0-0.2-0.1-0.4-0.2-0.6c-0.1-0.2-0.4-0.3-0.7-0.5c-0.1,0-0.1-0.1-0.2-0.1c-0.4-0.2-0.7-0.4-0.9-0.5
		c-0.2-0.2-0.3-0.4-0.4-0.6c-0.1-0.2-0.2-0.4-0.2-0.6c0-0.5,0.2-0.9,0.6-1.2c0.4-0.3,0.9-0.5,1.5-0.5c0.3,0,0.5,0,0.8,0.1
		c0.3,0,0.5,0.1,0.8,0.2v1.4h-0.6l-0.1-0.9l-0.1-0.1c-0.1,0-0.2-0.1-0.3-0.1c-0.1,0-0.2,0-0.4,0c-0.3,0-0.5,0.1-0.7,0.2
		c-0.2,0.2-0.3,0.4-0.3,0.6c0,0.2,0.1,0.3,0.2,0.5c0.1,0.1,0.3,0.3,0.5,0.5c0.1,0,0.2,0.1,0.5,0.3c0.3,0.1,0.5,0.3,0.7,0.4
		c0.2,0.2,0.4,0.4,0.6,0.6c0.1,0.2,0.2,0.5,0.2,0.7c0,0.5-0.2,1-0.6,1.3c-0.4,0.3-1,0.5-1.7,0.5c-0.3,0-0.6,0-0.8-0.1
		C78.9,168.9,78.6,168.9,78.3,168.8"/>
</g>
<polygon class="st5" points="87.2,168.9 87.2,168.5 87.7,168.5 87.8,168.3 87.8,163.6 87.7,163.5 87.2,163.5 87.2,163 91.5,163 
	91.5,164.4 90.9,164.4 90.8,163.7 90.7,163.5 88.9,163.5 88.9,165.6 90.1,165.6 90.2,165.5 90.3,164.9 90.8,164.9 90.8,166.9 
	90.3,166.9 90.2,166.3 90.1,166.2 88.9,166.2 88.9,168.4 90.9,168.4 91,168.3 91.2,167.4 91.8,167.4 91.8,168.9 "/>
<polygon class="st5" points="93,163 98,163 98,164.6 97.4,164.6 97.2,163.7 97.1,163.6 96.1,163.6 96.1,168.3 96.2,168.5 
	96.8,168.5 96.8,168.9 94.2,168.9 94.2,168.5 94.8,168.5 94.9,168.3 94.9,163.6 93.9,163.6 93.8,163.7 93.6,164.6 93,164.6 "/>
<g>
	<path class="st5" d="M102.8,168.8v-1.6h0.7l0.1,1.1l0.1,0.1c0.1,0,0.3,0.1,0.4,0.1c0.1,0,0.3,0,0.4,0c0.3,0,0.6-0.1,0.8-0.2
		c0.2-0.2,0.3-0.4,0.3-0.6c0-0.2-0.1-0.4-0.2-0.6c-0.1-0.2-0.4-0.3-0.7-0.5c-0.1,0-0.1-0.1-0.2-0.1c-0.4-0.2-0.7-0.4-0.9-0.5
		c-0.2-0.2-0.3-0.4-0.4-0.6c-0.1-0.2-0.2-0.4-0.2-0.6c0-0.5,0.2-0.9,0.6-1.2c0.4-0.3,0.9-0.5,1.5-0.5c0.3,0,0.5,0,0.8,0.1
		c0.3,0,0.5,0.1,0.8,0.2v1.4h-0.6l-0.1-0.9l-0.1-0.1c-0.1,0-0.2-0.1-0.3-0.1c-0.1,0-0.2,0-0.4,0c-0.3,0-0.5,0.1-0.7,0.2
		c-0.2,0.2-0.3,0.4-0.3,0.6c0,0.2,0.1,0.3,0.2,0.5c0.1,0.1,0.3,0.3,0.5,0.5c0.1,0,0.2,0.1,0.5,0.3c0.3,0.1,0.5,0.3,0.7,0.4
		c0.2,0.2,0.4,0.4,0.6,0.6c0.1,0.2,0.2,0.5,0.2,0.7c0,0.5-0.2,1-0.6,1.3c-0.4,0.3-1,0.5-1.7,0.5c-0.3,0-0.6,0-0.8-0.1
		S103.1,168.9,102.8,168.8"/>
	<path class="st5" d="M110.1,166.2C110.1,166.2,110.1,166.3,110.1,166.2c0.2,0,0.3,0,0.3,0c0.4,0,0.8-0.1,1-0.4
		c0.2-0.2,0.3-0.6,0.3-1.1c0-0.4-0.1-0.7-0.3-1c-0.2-0.2-0.5-0.3-0.9-0.3h-0.4V166.2z M108.3,168.9v-0.4l0.5,0l0.2-0.1v-4.7
		l-0.1-0.1l-0.6,0V163h2.3c0.8,0,1.4,0.1,1.8,0.4c0.4,0.3,0.6,0.7,0.6,1.3c0,0.6-0.2,1.1-0.6,1.4c-0.4,0.3-0.9,0.5-1.7,0.5
		c-0.1,0-0.1,0-0.2,0c-0.1,0-0.2,0-0.3,0v1.6l0.1,0.1l0.6,0v0.4H108.3z"/>
</g>
<polygon class="st5" points="114.2,168.9 114.2,168.5 114.8,168.5 114.9,168.3 114.9,163.6 114.8,163.5 114.2,163.5 114.2,163 
	116.8,163 116.8,163.5 116.2,163.5 116.1,163.6 116.1,168.3 116.2,168.5 116.8,168.5 116.8,168.9 "/>
<g>
	<path class="st5" d="M119.9,163.6l0,2.3c0,0,0.1,0,0.1,0c0,0,0.1,0,0.2,0c0.5,0,0.8-0.1,1-0.3c0.2-0.2,0.3-0.5,0.3-0.9
		c0-0.4-0.1-0.6-0.3-0.8c-0.2-0.2-0.5-0.3-0.9-0.3H119.9z M118.1,163h2.6c0.7,0,1.2,0.1,1.5,0.4c0.3,0.3,0.5,0.6,0.5,1.1
		c0,0.4-0.1,0.7-0.4,1c-0.2,0.3-0.6,0.4-1.1,0.5c0.2,0.1,0.4,0.1,0.5,0.2c0.1,0.1,0.3,0.2,0.4,0.3c0.1,0.2,0.2,0.5,0.4,0.9
		c0.1,0.2,0.1,0.3,0.1,0.4c0.1,0.2,0.2,0.4,0.3,0.5c0.1,0.1,0.4,0.1,0.7,0.1h0.1v0.4c-0.2,0-0.3,0-0.5,0.1c-0.1,0-0.3,0-0.4,0
		c-0.2,0-0.3,0-0.5-0.1c-0.2,0-0.3-0.1-0.4-0.2c-0.3-0.2-0.5-0.5-0.6-1c0-0.1,0-0.1,0-0.2c-0.2-0.5-0.3-0.8-0.5-1
		c-0.2-0.2-0.5-0.2-0.8-0.2h-0.1v2l0.1,0.1l0.5,0v0.4h-2.4v-0.4l0.5,0l0.1-0.1v-4.7l-0.1-0.1l-0.5,0V163z"/>
</g>
<polygon class="st5" points="124.7,168.9 124.7,168.5 125.3,168.5 125.4,168.3 125.4,163.6 125.3,163.5 124.7,163.5 124.7,163 
	127.3,163 127.3,163.5 126.7,163.5 126.6,163.6 126.6,168.3 126.7,168.5 127.3,168.5 127.3,168.9 "/>
<polygon class="st5" points="128.5,163 133.5,163 133.5,164.6 132.9,164.6 132.7,163.7 132.6,163.6 131.6,163.6 131.6,168.3 
	131.7,168.5 132.3,168.5 132.3,168.9 129.7,168.9 129.7,168.5 130.3,168.5 130.4,168.3 130.4,163.6 129.4,163.6 129.2,163.7 
	129.1,164.6 128.5,164.6 "/>
<g>
	<path class="st5" d="M134.6,163h2.5v0.4l-0.5,0l-0.1,0.1v3.1c0,0.6,0.1,1,0.3,1.3c0.2,0.3,0.6,0.4,1.1,0.4c0.5,0,0.8-0.1,1-0.4
		c0.2-0.3,0.3-0.7,0.3-1.3v-3l-0.1-0.2l-0.5-0.1V163h2v0.4l-0.5,0.1l-0.1,0.2v3.1c0,0.8-0.2,1.4-0.5,1.8c-0.4,0.4-0.9,0.5-1.7,0.5
		c-0.4,0-0.8-0.1-1.1-0.2c-0.3-0.1-0.6-0.3-0.7-0.5c-0.1-0.2-0.2-0.4-0.3-0.6c-0.1-0.2-0.1-0.6-0.1-1v-3l-0.1-0.1l-0.5,0V163z"/>
</g>
<polygon class="st5" points="141.6,168.9 141.6,168.5 142.1,168.5 142.2,168.3 142.2,163.6 142.1,163.5 141.6,163.5 141.6,163 
	145.9,163 145.9,164.4 145.3,164.4 145.2,163.7 145.1,163.5 143.4,163.5 143.4,165.6 144.5,165.6 144.6,165.5 144.7,164.9 
	145.2,164.9 145.2,166.9 144.7,166.9 144.6,166.3 144.5,166.2 143.4,166.2 143.4,168.4 145.4,168.4 145.5,168.3 145.6,167.4 
	146.2,167.4 146.2,168.9 "/>
<g>
	<path class="st5" d="M147.5,163h2.5v0.4l-0.5,0l-0.1,0.1v3.1c0,0.6,0.1,1,0.3,1.3c0.2,0.3,0.6,0.4,1.1,0.4c0.5,0,0.8-0.1,1-0.4
		c0.2-0.3,0.3-0.7,0.3-1.3v-3l-0.1-0.2l-0.5-0.1V163h2v0.4l-0.5,0.1l-0.1,0.2v3.1c0,0.8-0.2,1.4-0.5,1.8c-0.4,0.4-0.9,0.5-1.7,0.5
		c-0.4,0-0.8-0.1-1.1-0.2c-0.3-0.1-0.6-0.3-0.7-0.5c-0.1-0.2-0.2-0.4-0.3-0.6c-0.1-0.2-0.1-0.6-0.1-1v-3l-0.1-0.1l-0.5,0V163z"/>
</g>
<polygon class="st5" points="154.3,163 156.8,163 156.8,163.5 156.3,163.5 156.2,163.6 157.2,165.3 158.3,163.7 158.2,163.5 
	157.7,163.5 157.7,163 159.7,163 159.7,163.5 159.1,163.5 157.5,165.8 159.2,168.4 159.8,168.5 159.8,168.9 157.3,168.9 
	157.3,168.5 157.8,168.5 157.9,168.3 156.8,166.6 155.6,168.3 155.7,168.5 156.2,168.5 156.2,168.9 154.2,168.9 154.2,168.5 
	154.8,168.4 156.5,166.1 154.9,163.6 154.3,163.5 "/>
<g>
	<path class="st5" d="M161.8,167.6c0.2,0,0.3,0.1,0.5,0.2c0.1,0.1,0.2,0.3,0.2,0.5c0,0.2-0.1,0.4-0.2,0.5c-0.1,0.1-0.3,0.2-0.5,0.2
		c-0.2,0-0.3-0.1-0.5-0.2c-0.1-0.1-0.2-0.3-0.2-0.5c0-0.2,0.1-0.4,0.2-0.5C161.5,167.7,161.6,167.6,161.8,167.6"/>
	<path class="st5" d="M6.5,168.5L6.5,168.5c0.2,0,0.3,0,0.4,0c0.5,0,0.9-0.1,1.1-0.3c0.2-0.2,0.3-0.5,0.3-0.9c0-0.4-0.1-0.7-0.3-0.8
		c-0.2-0.2-0.5-0.3-1-0.3c-0.1,0-0.2,0-0.3,0c-0.1,0-0.2,0-0.3,0V168.5z M6.5,165.7C6.5,165.7,6.6,165.7,6.5,165.7
		c0.1,0,0.2,0,0.2,0c0.4,0,0.8-0.1,1-0.3c0.2-0.2,0.3-0.5,0.3-0.9c0-0.3-0.1-0.6-0.3-0.8c-0.2-0.2-0.5-0.2-0.9-0.2
		c-0.1,0-0.2,0-0.3,0h0L6.5,165.7z M4.7,163h2.6c0.6,0,1.1,0.1,1.4,0.3c0.3,0.2,0.5,0.6,0.5,1c0,0.3-0.1,0.6-0.3,0.9
		c-0.2,0.2-0.5,0.4-0.9,0.5c0.5,0,0.9,0.1,1.2,0.4c0.3,0.3,0.4,0.6,0.4,1c0,0.6-0.2,1-0.6,1.3c-0.4,0.3-0.9,0.4-1.6,0.4H4.7v-0.4
		l0.5,0l0.1-0.1v-4.7l-0.1-0.1l-0.5,0V163z"/>
	<path class="st5" d="M14.2,163.5c-0.5,0-0.9,0.2-1.2,0.7c-0.3,0.5-0.4,1.1-0.4,1.8c0,0.8,0.1,1.4,0.4,1.9c0.3,0.5,0.7,0.7,1.2,0.7
		c0.5,0,0.9-0.2,1.2-0.7c0.3-0.5,0.4-1.1,0.4-1.8c0-0.8-0.1-1.4-0.4-1.9C15.1,163.7,14.7,163.5,14.2,163.5 M11.3,166
		c0-0.5,0.1-0.9,0.2-1.3c0.1-0.4,0.4-0.7,0.7-1c0.3-0.3,0.6-0.4,0.9-0.6c0.3-0.1,0.7-0.2,1.1-0.2c0.4,0,0.7,0.1,1,0.2
		c0.3,0.1,0.6,0.3,0.9,0.5c0.3,0.3,0.6,0.6,0.8,1.1c0.2,0.4,0.3,0.9,0.3,1.4c0,0.5-0.1,0.9-0.2,1.3c-0.2,0.4-0.4,0.7-0.7,1
		c-0.3,0.2-0.6,0.4-0.9,0.6c-0.3,0.1-0.7,0.2-1,0.2c-0.9,0-1.6-0.3-2.1-0.9C11.5,167.7,11.3,166.9,11.3,166"/>
</g>
<polygon class="st5" points="18.5,168.9 18.5,168.5 19.1,168.5 19.2,168.3 19.2,163.6 19.1,163.5 18.5,163.5 18.5,163 21.1,163 
	21.1,163.5 20.5,163.5 20.4,163.6 20.4,168.3 20.5,168.5 21.1,168.5 21.1,168.9 "/>
<g>
	<path class="st5" d="M22.6,168.8v-1.6h0.7l0.1,1.1l0.1,0.1c0.1,0,0.3,0.1,0.4,0.1c0.1,0,0.3,0,0.4,0c0.3,0,0.6-0.1,0.8-0.2
		c0.2-0.2,0.3-0.4,0.3-0.6c0-0.2-0.1-0.4-0.2-0.6c-0.1-0.2-0.4-0.3-0.7-0.5c-0.1,0-0.1-0.1-0.2-0.1c-0.4-0.2-0.7-0.4-0.9-0.5
		c-0.2-0.2-0.3-0.4-0.4-0.6c-0.1-0.2-0.2-0.4-0.2-0.6c0-0.5,0.2-0.9,0.6-1.2c0.4-0.3,0.9-0.5,1.5-0.5c0.3,0,0.5,0,0.8,0.1
		c0.3,0,0.5,0.1,0.8,0.2v1.4h-0.6l-0.1-0.9l-0.1-0.1c-0.1,0-0.2-0.1-0.3-0.1c-0.1,0-0.2,0-0.4,0c-0.3,0-0.5,0.1-0.7,0.2
		c-0.2,0.2-0.3,0.4-0.3,0.6c0,0.2,0.1,0.3,0.2,0.5c0.1,0.1,0.3,0.3,0.5,0.5c0.1,0,0.2,0.1,0.5,0.3c0.3,0.1,0.5,0.3,0.7,0.4
		c0.2,0.2,0.4,0.4,0.6,0.6c0.1,0.2,0.2,0.5,0.2,0.7c0,0.5-0.2,1-0.6,1.3c-0.4,0.3-1,0.5-1.7,0.5c-0.3,0-0.6,0-0.8-0.1
		C23.2,168.9,22.9,168.9,22.6,168.8"/>
	<path class="st5" d="M28.4,168.8v-1.6H29l0.1,1.1l0.1,0.1c0.1,0,0.3,0.1,0.4,0.1c0.1,0,0.3,0,0.4,0c0.3,0,0.6-0.1,0.8-0.2
		c0.2-0.2,0.3-0.4,0.3-0.6c0-0.2-0.1-0.4-0.2-0.6c-0.1-0.2-0.4-0.3-0.7-0.5c-0.1,0-0.1-0.1-0.2-0.1c-0.4-0.2-0.7-0.4-0.9-0.5
		c-0.2-0.2-0.3-0.4-0.4-0.6c-0.1-0.2-0.2-0.4-0.2-0.6c0-0.5,0.2-0.9,0.6-1.2c0.4-0.3,0.9-0.5,1.5-0.5c0.3,0,0.5,0,0.8,0.1
		c0.3,0,0.5,0.1,0.8,0.2v1.4h-0.6l-0.1-0.9l-0.1-0.1c-0.1,0-0.2-0.1-0.3-0.1c-0.1,0-0.2,0-0.4,0c-0.3,0-0.5,0.1-0.7,0.2
		c-0.2,0.2-0.3,0.4-0.3,0.6c0,0.2,0.1,0.3,0.2,0.5c0.1,0.1,0.3,0.3,0.5,0.5c0.1,0,0.2,0.1,0.5,0.3c0.3,0.1,0.5,0.3,0.7,0.4
		c0.2,0.2,0.4,0.4,0.6,0.6c0.1,0.2,0.2,0.5,0.2,0.7c0,0.5-0.2,1-0.6,1.3c-0.4,0.3-1,0.5-1.7,0.5c-0.3,0-0.6,0-0.8-0.1
		C28.9,168.9,28.6,168.9,28.4,168.8"/>
	<path class="st5" d="M36.9,163.5c-0.5,0-0.9,0.2-1.2,0.7c-0.3,0.5-0.4,1.1-0.4,1.8c0,0.8,0.1,1.4,0.4,1.9c0.3,0.5,0.7,0.7,1.2,0.7
		c0.5,0,0.9-0.2,1.2-0.7c0.3-0.5,0.4-1.1,0.4-1.8c0-0.8-0.1-1.4-0.4-1.9C37.8,163.7,37.4,163.5,36.9,163.5 M34,166
		c0-0.5,0.1-0.9,0.2-1.3c0.1-0.4,0.4-0.7,0.7-1c0.3-0.3,0.6-0.4,0.9-0.6c0.3-0.1,0.7-0.2,1.1-0.2c0.4,0,0.7,0.1,1,0.2
		c0.3,0.1,0.6,0.3,0.9,0.5c0.3,0.3,0.6,0.6,0.8,1.1c0.2,0.4,0.3,0.9,0.3,1.4c0,0.5-0.1,0.9-0.2,1.3c-0.2,0.4-0.4,0.7-0.7,1
		c-0.3,0.2-0.6,0.4-0.9,0.6c-0.3,0.1-0.7,0.2-1,0.2c-0.9,0-1.6-0.3-2.1-0.9C34.2,167.7,34,166.9,34,166"/>
</g>
<polygon class="st5" points="41.2,168.9 41.2,168.5 41.7,168.5 41.8,168.3 41.8,163.6 41.7,163.5 41.2,163.5 41.2,163 43.1,163 
	43.1,163.3 45.8,167.5 45.8,163.7 45.6,163.5 45.1,163.5 45.1,163 47,163 47,163.5 46.5,163.5 46.4,163.7 46.4,168.9 45.4,168.9 
	42.4,164.2 42.4,168.3 42.6,168.5 43.1,168.5 43.1,168.9 "/>
<g>
	<path class="st5" d="M48.6,168.8v-1.6h0.7l0.1,1.1l0.1,0.1c0.1,0,0.3,0.1,0.4,0.1c0.1,0,0.3,0,0.4,0c0.3,0,0.6-0.1,0.8-0.2
		c0.2-0.2,0.3-0.4,0.3-0.6c0-0.2-0.1-0.4-0.2-0.6c-0.1-0.2-0.4-0.3-0.7-0.5c-0.1,0-0.1-0.1-0.2-0.1c-0.4-0.2-0.7-0.4-0.9-0.5
		c-0.2-0.2-0.3-0.4-0.4-0.6c-0.1-0.2-0.2-0.4-0.2-0.6c0-0.5,0.2-0.9,0.6-1.2c0.4-0.3,0.9-0.5,1.5-0.5c0.3,0,0.5,0,0.8,0.1
		c0.3,0,0.5,0.1,0.8,0.2v1.4h-0.6l-0.1-0.9l-0.1-0.1c-0.1,0-0.2-0.1-0.3-0.1c-0.1,0-0.2,0-0.4,0c-0.3,0-0.5,0.1-0.7,0.2
		c-0.2,0.2-0.3,0.4-0.3,0.6c0,0.2,0.1,0.3,0.2,0.5c0.1,0.1,0.3,0.3,0.5,0.5c0.1,0,0.2,0.1,0.5,0.3c0.3,0.1,0.5,0.3,0.7,0.4
		c0.2,0.2,0.4,0.4,0.6,0.6c0.1,0.2,0.2,0.5,0.2,0.7c0,0.5-0.2,1-0.6,1.3c-0.4,0.3-1,0.5-1.7,0.5c-0.3,0-0.6,0-0.8-0.1
		C49.1,168.9,48.8,168.9,48.6,168.8"/>
	<path class="st5" d="M54,170.5v-0.4c0.3-0.1,0.5-0.2,0.7-0.4c0.2-0.2,0.2-0.4,0.2-0.7v-0.1h-0.5c-0.1-0.1-0.1-0.1-0.1-0.2
		c0-0.1,0-0.2,0-0.3c0-0.2,0.1-0.3,0.2-0.4c0.1-0.1,0.3-0.2,0.4-0.2c0.2,0,0.4,0.1,0.6,0.2c0.1,0.2,0.2,0.4,0.2,0.7
		c0,0.5-0.1,0.8-0.4,1.2C54.9,170.2,54.5,170.4,54,170.5"/>
</g>
<polygon class="st5" points="60.3,163 62.7,163 62.7,163.5 62.2,163.5 62.1,163.7 63.5,167.7 64.9,163.7 64.8,163.5 64.3,163.5 
	64.3,163 66.2,163 66.2,163.5 65.6,163.6 63.7,168.9 62.8,168.9 60.9,163.6 60.3,163.5 "/>
<polygon class="st5" points="67.1,168.9 67.1,168.5 67.6,168.5 67.8,168.3 67.8,163.6 67.6,163.5 67.1,163.5 67.1,163 69.6,163 
	69.6,163.5 69.1,163.5 68.9,163.6 68.9,168.3 69.1,168.5 69.6,168.5 69.6,168.9 "/>
<polygon class="st5" points="70.9,168.9 70.9,168.5 71.4,168.5 71.6,168.3 71.6,163.6 71.5,163.5 70.9,163.5 70.9,163 72.9,163 
	72.9,163.3 75.5,167.5 75.5,163.7 75.4,163.5 74.8,163.5 74.8,163 76.8,163 76.8,163.5 76.3,163.5 76.2,163.7 76.2,168.9 
	75.2,168.9 72.2,164.2 72.2,168.3 72.4,168.5 72.9,168.5 72.9,168.9 "/>
<g>
	<path class="st5" d="M78.3,168.8v-1.6H79l0.1,1.1l0.1,0.1c0.1,0,0.3,0.1,0.4,0.1c0.1,0,0.3,0,0.4,0c0.3,0,0.6-0.1,0.8-0.2
		c0.2-0.2,0.3-0.4,0.3-0.6c0-0.2-0.1-0.4-0.2-0.6c-0.1-0.2-0.4-0.3-0.7-0.5c-0.1,0-0.1-0.1-0.2-0.1c-0.4-0.2-0.7-0.4-0.9-0.5
		c-0.2-0.2-0.3-0.4-0.4-0.6c-0.1-0.2-0.2-0.4-0.2-0.6c0-0.5,0.2-0.9,0.6-1.2c0.4-0.3,0.9-0.5,1.5-0.5c0.3,0,0.5,0,0.8,0.1
		c0.3,0,0.5,0.1,0.8,0.2v1.4h-0.6l-0.1-0.9l-0.1-0.1c-0.1,0-0.2-0.1-0.3-0.1c-0.1,0-0.2,0-0.4,0c-0.3,0-0.5,0.1-0.7,0.2
		c-0.2,0.2-0.3,0.4-0.3,0.6c0,0.2,0.1,0.3,0.2,0.5c0.1,0.1,0.3,0.3,0.5,0.5c0.1,0,0.2,0.1,0.5,0.3c0.3,0.1,0.5,0.3,0.7,0.4
		c0.2,0.2,0.4,0.4,0.6,0.6c0.1,0.2,0.2,0.5,0.2,0.7c0,0.5-0.2,1-0.6,1.3c-0.4,0.3-1,0.5-1.7,0.5c-0.3,0-0.6,0-0.8-0.1
		C78.9,168.9,78.6,168.9,78.3,168.8"/>
</g>
<polygon class="st5" points="87.2,168.9 87.2,168.5 87.7,168.5 87.8,168.3 87.8,163.6 87.7,163.5 87.2,163.5 87.2,163 91.5,163 
	91.5,164.4 90.9,164.4 90.8,163.7 90.7,163.5 88.9,163.5 88.9,165.6 90.1,165.6 90.2,165.5 90.3,164.9 90.8,164.9 90.8,166.9 
	90.3,166.9 90.2,166.3 90.1,166.2 88.9,166.2 88.9,168.4 90.9,168.4 91,168.3 91.2,167.4 91.8,167.4 91.8,168.9 "/>
<polygon class="st5" points="93,163 98,163 98,164.6 97.4,164.6 97.2,163.7 97.1,163.6 96.1,163.6 96.1,168.3 96.2,168.5 
	96.8,168.5 96.8,168.9 94.2,168.9 94.2,168.5 94.8,168.5 94.9,168.3 94.9,163.6 93.9,163.6 93.8,163.7 93.6,164.6 93,164.6 "/>
<g>
	<path class="st5" d="M102.8,168.8v-1.6h0.7l0.1,1.1l0.1,0.1c0.1,0,0.3,0.1,0.4,0.1c0.1,0,0.3,0,0.4,0c0.3,0,0.6-0.1,0.8-0.2
		c0.2-0.2,0.3-0.4,0.3-0.6c0-0.2-0.1-0.4-0.2-0.6c-0.1-0.2-0.4-0.3-0.7-0.5c-0.1,0-0.1-0.1-0.2-0.1c-0.4-0.2-0.7-0.4-0.9-0.5
		c-0.2-0.2-0.3-0.4-0.4-0.6c-0.1-0.2-0.2-0.4-0.2-0.6c0-0.5,0.2-0.9,0.6-1.2c0.4-0.3,0.9-0.5,1.5-0.5c0.3,0,0.5,0,0.8,0.1
		c0.3,0,0.5,0.1,0.8,0.2v1.4h-0.6l-0.1-0.9l-0.1-0.1c-0.1,0-0.2-0.1-0.3-0.1c-0.1,0-0.2,0-0.4,0c-0.3,0-0.5,0.1-0.7,0.2
		c-0.2,0.2-0.3,0.4-0.3,0.6c0,0.2,0.1,0.3,0.2,0.5c0.1,0.1,0.3,0.3,0.5,0.5c0.1,0,0.2,0.1,0.5,0.3c0.3,0.1,0.5,0.3,0.7,0.4
		c0.2,0.2,0.4,0.4,0.6,0.6c0.1,0.2,0.2,0.5,0.2,0.7c0,0.5-0.2,1-0.6,1.3c-0.4,0.3-1,0.5-1.7,0.5c-0.3,0-0.6,0-0.8-0.1
		S103.1,168.9,102.8,168.8"/>
	<path class="st5" d="M110.1,166.2C110.1,166.2,110.1,166.3,110.1,166.2c0.2,0,0.3,0,0.3,0c0.4,0,0.8-0.1,1-0.4
		c0.2-0.2,0.3-0.6,0.3-1.1c0-0.4-0.1-0.7-0.3-1c-0.2-0.2-0.5-0.3-0.9-0.3h-0.4V166.2z M108.3,168.9v-0.4l0.5,0l0.2-0.1v-4.7
		l-0.1-0.1l-0.6,0V163h2.3c0.8,0,1.4,0.1,1.8,0.4c0.4,0.3,0.6,0.7,0.6,1.3c0,0.6-0.2,1.1-0.6,1.4c-0.4,0.3-0.9,0.5-1.7,0.5
		c-0.1,0-0.1,0-0.2,0c-0.1,0-0.2,0-0.3,0v1.6l0.1,0.1l0.6,0v0.4H108.3z"/>
</g>
<polygon class="st5" points="114.2,168.9 114.2,168.5 114.8,168.5 114.9,168.3 114.9,163.6 114.8,163.5 114.2,163.5 114.2,163 
	116.8,163 116.8,163.5 116.2,163.5 116.1,163.6 116.1,168.3 116.2,168.5 116.8,168.5 116.8,168.9 "/>
<g>
	<path class="st5" d="M119.9,163.6l0,2.3c0,0,0.1,0,0.1,0c0,0,0.1,0,0.2,0c0.5,0,0.8-0.1,1-0.3c0.2-0.2,0.3-0.5,0.3-0.9
		c0-0.4-0.1-0.6-0.3-0.8c-0.2-0.2-0.5-0.3-0.9-0.3H119.9z M118.1,163h2.6c0.7,0,1.2,0.1,1.5,0.4c0.3,0.3,0.5,0.6,0.5,1.1
		c0,0.4-0.1,0.7-0.4,1c-0.2,0.3-0.6,0.4-1.1,0.5c0.2,0.1,0.4,0.1,0.5,0.2c0.1,0.1,0.3,0.2,0.4,0.3c0.1,0.2,0.2,0.5,0.4,0.9
		c0.1,0.2,0.1,0.3,0.1,0.4c0.1,0.2,0.2,0.4,0.3,0.5c0.1,0.1,0.4,0.1,0.7,0.1h0.1v0.4c-0.2,0-0.3,0-0.5,0.1c-0.1,0-0.3,0-0.4,0
		c-0.2,0-0.3,0-0.5-0.1c-0.2,0-0.3-0.1-0.4-0.2c-0.3-0.2-0.5-0.5-0.6-1c0-0.1,0-0.1,0-0.2c-0.2-0.5-0.3-0.8-0.5-1
		c-0.2-0.2-0.5-0.2-0.8-0.2h-0.1v2l0.1,0.1l0.5,0v0.4h-2.4v-0.4l0.5,0l0.1-0.1v-4.7l-0.1-0.1l-0.5,0V163z"/>
</g>
<polygon class="st5" points="124.7,168.9 124.7,168.5 125.3,168.5 125.4,168.3 125.4,163.6 125.3,163.5 124.7,163.5 124.7,163 
	127.3,163 127.3,163.5 126.7,163.5 126.6,163.6 126.6,168.3 126.7,168.5 127.3,168.5 127.3,168.9 "/>
<polygon class="st5" points="128.5,163 133.5,163 133.5,164.6 132.9,164.6 132.7,163.7 132.6,163.6 131.6,163.6 131.6,168.3 
	131.7,168.5 132.3,168.5 132.3,168.9 129.7,168.9 129.7,168.5 130.3,168.5 130.4,168.3 130.4,163.6 129.4,163.6 129.2,163.7 
	129.1,164.6 128.5,164.6 "/>
<g>
	<path class="st5" d="M134.6,163h2.5v0.4l-0.5,0l-0.1,0.1v3.1c0,0.6,0.1,1,0.3,1.3c0.2,0.3,0.6,0.4,1.1,0.4c0.5,0,0.8-0.1,1-0.4
		c0.2-0.3,0.3-0.7,0.3-1.3v-3l-0.1-0.2l-0.5-0.1V163h2v0.4l-0.5,0.1l-0.1,0.2v3.1c0,0.8-0.2,1.4-0.5,1.8c-0.4,0.4-0.9,0.5-1.7,0.5
		c-0.4,0-0.8-0.1-1.1-0.2c-0.3-0.1-0.6-0.3-0.7-0.5c-0.1-0.2-0.2-0.4-0.3-0.6c-0.1-0.2-0.1-0.6-0.1-1v-3l-0.1-0.1l-0.5,0V163z"/>
</g>
<polygon class="st5" points="141.6,168.9 141.6,168.5 142.1,168.5 142.2,168.3 142.2,163.6 142.1,163.5 141.6,163.5 141.6,163 
	145.9,163 145.9,164.4 145.3,164.4 145.2,163.7 145.1,163.5 143.4,163.5 143.4,165.6 144.5,165.6 144.6,165.5 144.7,164.9 
	145.2,164.9 145.2,166.9 144.7,166.9 144.6,166.3 144.5,166.2 143.4,166.2 143.4,168.4 145.4,168.4 145.5,168.3 145.6,167.4 
	146.2,167.4 146.2,168.9 "/>
<g>
	<path class="st5" d="M147.5,163h2.5v0.4l-0.5,0l-0.1,0.1v3.1c0,0.6,0.1,1,0.3,1.3c0.2,0.3,0.6,0.4,1.1,0.4c0.5,0,0.8-0.1,1-0.4
		c0.2-0.3,0.3-0.7,0.3-1.3v-3l-0.1-0.2l-0.5-0.1V163h2v0.4l-0.5,0.1l-0.1,0.2v3.1c0,0.8-0.2,1.4-0.5,1.8c-0.4,0.4-0.9,0.5-1.7,0.5
		c-0.4,0-0.8-0.1-1.1-0.2c-0.3-0.1-0.6-0.3-0.7-0.5c-0.1-0.2-0.2-0.4-0.3-0.6c-0.1-0.2-0.1-0.6-0.1-1v-3l-0.1-0.1l-0.5,0V163z"/>
</g>
<polygon class="st5" points="154.3,163 156.8,163 156.8,163.5 156.3,163.5 156.2,163.6 157.2,165.3 158.3,163.7 158.2,163.5 
	157.7,163.5 157.7,163 159.7,163 159.7,163.5 159.1,163.5 157.5,165.8 159.2,168.4 159.8,168.5 159.8,168.9 157.3,168.9 
	157.3,168.5 157.8,168.5 157.9,168.3 156.8,166.6 155.6,168.3 155.7,168.5 156.2,168.5 156.2,168.9 154.2,168.9 154.2,168.5 
	154.8,168.4 156.5,166.1 154.9,163.6 154.3,163.5 "/>
<g>
	<path class="st5" d="M161.8,167.6c0.2,0,0.3,0.1,0.5,0.2c0.1,0.1,0.2,0.3,0.2,0.5c0,0.2-0.1,0.4-0.2,0.5c-0.1,0.1-0.3,0.2-0.5,0.2
		c-0.2,0-0.3-0.1-0.5-0.2c-0.1-0.1-0.2-0.3-0.2-0.5c0-0.2,0.1-0.4,0.2-0.5C161.5,167.7,161.6,167.6,161.8,167.6"/>
</g>
</svg>
